<svg width="497" height="61" viewBox="0 0 497 61" fill="none" xmlns="http://www.w3.org/2000/svg">
<path d="M13.5625 54.0312C13.1875 57.7812 11.125 59.8125 7.375 60.125C5.625 60.125 4.09375 59.5625 2.78125 58.4375C1.53125 57.25 0.90625 55.7812 0.90625 54.0312V9.59375C0.96875 7.84375 1.625 6.40625 2.875 5.28125C4.125 4.09375 5.625 3.5 7.375 3.5H11.9688H23.5H46.6562C47.0312 3.5 47.4062 3.53125 47.7812 3.59375H48.3438C52.7188 3.71875 56.3125 4.71875 59.125 6.59375C61.9375 8.46875 63.9688 10.625 65.2188 13.0625C66.4688 15.4375 67.0938 17.8438 67.0938 20.2812C67.0938 22.7812 66.4688 25.25 65.2188 27.6875C64.0312 30.0625 62 32.1875 59.125 34.0625C56.3125 35.9375 52.7188 36.9375 48.3438 37.0625H31.8438C32.3438 40.1875 33.375 42.5 34.9375 44C36.4375 45.5 38.3438 46.25 40.6562 46.25H60.9062C62.6562 46.3125 64.0938 46.9688 65.2188 48.2188C66.4062 49.4688 67 50.9688 67 52.7188C66.9375 54.4062 66.3125 55.8438 65.125 57.0312C64 58.1562 62.5938 58.75 60.9062 58.8125H38.9688C34.3438 58.875 30.1562 57.0625 26.4062 53.375C22.6562 49.6875 20.375 45.3125 19.5625 40.25C18.4375 34.625 17.875 31.4688 17.875 30.7812C17.875 29.0312 18.4688 27.5625 19.6562 26.375C20.9062 25.125 22.4062 24.5 24.1562 24.5H48.9062C50.0938 24.4375 51.0625 24.1875 51.8125 23.75C52.625 23.25 53.2188 22.7188 53.5938 22.1562C53.9688 21.5312 54.1562 20.9062 54.1562 20.2812C54.1562 19.6562 53.9688 19.0625 53.5938 18.5C53.2188 17.875 52.625 17.3438 51.8125 16.9062C51.0625 16.4062 50.0938 16.125 48.9062 16.0625H23.5H16C14.375 16.125 13.5625 16.9375 13.5625 18.5V54.0312ZM94.6562 3.5H98.9688H130.844C132.594 3.5625 134.031 4.21875 135.156 5.46875C136.344 6.71875 136.938 8.21875 136.938 9.96875C136.625 13.7188 134.594 15.75 130.844 16.0625H97.8438C95.4688 16.1875 93.5 17.0938 91.9375 18.7812C90.375 20.4688 89.2188 22.4062 88.4688 24.5938C87.7812 26.7188 87.4375 28.9062 87.4375 31.1562C87.4375 33.4062 87.7812 35.625 88.4688 37.8125C89.2188 39.9375 90.375 41.8438 91.9375 43.5312C93.5 45.2188 95.4688 46.125 97.8438 46.25H130.844C132.594 46.3125 134.031 46.9688 135.156 48.2188C136.344 49.4688 136.938 50.9688 136.938 52.7188C136.875 54.4062 136.25 55.8438 135.062 57.0312C133.938 58.1562 132.531 58.75 130.844 58.8125H96.4375H94.6562C90.2812 58.5625 86.6562 56.9062 83.7812 53.8438C80.9688 50.7188 78.9375 47.1875 77.6875 43.25C76.5 39.3125 75.9062 35.2812 75.9062 31.1562C75.9062 27.0312 76.5312 23 77.7812 19.0625C79.0312 15.125 81.0625 11.625 83.875 8.5625C86.6875 5.4375 90.2812 3.75 94.6562 3.5ZM136.75 30.7812C136.75 32.5312 136.125 34 134.875 35.1875C133.688 36.4375 132.219 37.0625 130.469 37.0625H102.156C100.406 37.0625 98.9062 36.4688 97.6562 35.2812C96.4688 34.0312 95.875 32.5312 95.875 30.7812C95.875 29.0312 96.4688 27.5312 97.6562 26.2812C98.9062 25.0938 100.406 24.5 102.156 24.5H130.469C132.219 24.5 133.688 25.125 134.875 26.375C136.125 27.5625 136.75 29.0312 136.75 30.7812ZM164.125 3.5H203.688C205.438 3.5625 206.875 4.21875 208 5.46875C209.188 6.71875 209.781 8.21875 209.781 9.96875C209.469 13.7188 207.438 15.75 203.688 16.0625H167.312C164.938 16.1875 162.969 17.0938 161.406 18.7812C159.844 20.4688 158.688 22.4062 157.938 24.5938C157.25 26.7188 156.906 28.9062 156.906 31.1562C156.906 33.4062 157.25 35.625 157.938 37.8125C158.688 39.9375 159.844 41.8438 161.406 43.5312C162.969 45.2188 164.938 46.125 167.312 46.25H195.812C196.938 46.1875 197.531 45.5625 197.594 44.375V38.9375C197.531 37.6875 196.938 37.0625 195.812 37.0625H171.812C170.062 37.0625 168.562 36.4688 167.312 35.2812C166.125 34.0312 165.531 32.5312 165.531 30.7812C165.531 29.0312 166.125 27.5312 167.312 26.2812C168.562 25.0938 170.062 24.5 171.812 24.5H203.875C205.625 24.5 207.125 25.0938 208.375 26.2812C209.5 27.4688 210.094 28.9062 210.156 30.5938V30.7812V52.7188C210.094 54.4062 209.5 55.8125 208.375 56.9375C207.188 58.125 205.75 58.75 204.062 58.8125H164.125C159.75 58.5625 156.125 56.9062 153.25 53.8438C150.438 50.7188 148.406 47.1875 147.156 43.25C145.969 39.3125 145.375 35.2812 145.375 31.1562C145.375 27.0312 146 23 147.25 19.0625C148.5 15.125 150.531 11.625 153.344 8.5625C156.156 5.4375 159.75 3.75 164.125 3.5ZM234.438 54.0312C234.062 57.7812 232 59.8125 228.25 60.125C226.5 60.125 224.969 59.5625 223.656 58.4375C222.406 57.25 221.781 55.7812 221.781 54.0312V9.59375C221.844 7.84375 222.5 6.40625 223.75 5.28125C225 4.09375 226.5 3.5 228.25 3.5H232.844H244.375H267.531C267.906 3.5 268.281 3.53125 268.656 3.59375H269.219C273.594 3.71875 277.188 4.71875 280 6.59375C282.812 8.46875 284.844 10.625 286.094 13.0625C287.344 15.4375 287.969 17.8438 287.969 20.2812C287.969 22.7812 287.344 25.25 286.094 27.6875C284.906 30.0625 282.875 32.1875 280 34.0625C277.188 35.9375 273.594 36.9375 269.219 37.0625H252.719C253.219 40.1875 254.25 42.5 255.812 44C257.312 45.5 259.219 46.25 261.531 46.25H281.781C283.531 46.3125 284.969 46.9688 286.094 48.2188C287.281 49.4688 287.875 50.9688 287.875 52.7188C287.812 54.4062 287.188 55.8438 286 57.0312C284.875 58.1562 283.469 58.75 281.781 58.8125H259.844C255.219 58.875 251.031 57.0625 247.281 53.375C243.531 49.6875 241.25 45.3125 240.438 40.25C239.312 34.625 238.75 31.4688 238.75 30.7812C238.75 29.0312 239.344 27.5625 240.531 26.375C241.781 25.125 243.281 24.5 245.031 24.5H269.781C270.969 24.4375 271.938 24.1875 272.688 23.75C273.5 23.25 274.094 22.7188 274.469 22.1562C274.844 21.5312 275.031 20.9062 275.031 20.2812C275.031 19.6562 274.844 19.0625 274.469 18.5C274.094 17.875 273.5 17.3438 272.688 16.9062C271.938 16.4062 270.969 16.125 269.781 16.0625H244.375H236.875C235.25 16.125 234.438 16.9375 234.438 18.5V54.0312ZM315.531 3.5H319.844H351.719C353.469 3.5625 354.906 4.21875 356.031 5.46875C357.219 6.71875 357.812 8.21875 357.812 9.96875C357.5 13.7188 355.469 15.75 351.719 16.0625H318.719C316.344 16.1875 314.375 17.0938 312.812 18.7812C311.25 20.4688 310.094 22.4062 309.344 24.5938C308.656 26.7188 308.312 28.9062 308.312 31.1562C308.312 33.4062 308.656 35.625 309.344 37.8125C310.094 39.9375 311.25 41.8438 312.812 43.5312C314.375 45.2188 316.344 46.125 318.719 46.25H351.719C353.469 46.3125 354.906 46.9688 356.031 48.2188C357.219 49.4688 357.812 50.9688 357.812 52.7188C357.75 54.4062 357.125 55.8438 355.938 57.0312C354.812 58.1562 353.406 58.75 351.719 58.8125H317.312H315.531C311.156 58.5625 307.531 56.9062 304.656 53.8438C301.844 50.7188 299.812 47.1875 298.562 43.25C297.375 39.3125 296.781 35.2812 296.781 31.1562C296.781 27.0312 297.406 23 298.656 19.0625C299.906 15.125 301.938 11.625 304.75 8.5625C307.562 5.4375 311.156 3.75 315.531 3.5ZM357.625 30.7812C357.625 32.5312 357 34 355.75 35.1875C354.562 36.4375 353.094 37.0625 351.344 37.0625H323.031C321.281 37.0625 319.781 36.4688 318.531 35.2812C317.344 34.0312 316.75 32.5312 316.75 30.7812C316.75 29.0312 317.344 27.5312 318.531 26.2812C319.781 25.0938 321.281 24.5 323.031 24.5H351.344C353.094 24.5 354.562 25.125 355.75 26.375C357 27.5625 357.625 29.0312 357.625 30.7812ZM384.625 3.5H388.938H420.812C422.562 3.5625 424 4.21875 425.125 5.46875C426.312 6.71875 426.906 8.21875 426.906 9.96875C426.594 13.7188 424.562 15.75 420.812 16.0625H387.812C385.438 16.1875 383.469 17.0938 381.906 18.7812C380.344 20.4688 379.188 22.4062 378.438 24.5938C377.75 26.7188 377.406 28.9062 377.406 31.1562C377.406 33.4062 377.75 35.625 378.438 37.8125C379.188 39.9375 380.344 41.8438 381.906 43.5312C383.469 45.2188 385.438 46.125 387.812 46.25H420.812C422.562 46.3125 424 46.9688 425.125 48.2188C426.312 49.4688 426.906 50.9688 426.906 52.7188C426.844 54.4062 426.219 55.8438 425.031 57.0312C423.906 58.1562 422.5 58.75 420.812 58.8125H386.406H384.625C380.25 58.5625 376.625 56.9062 373.75 53.8438C370.938 50.7188 368.906 47.1875 367.656 43.25C366.469 39.3125 365.875 35.2812 365.875 31.1562C365.875 27.0312 366.5 23 367.75 19.0625C369 15.125 371.031 11.625 373.844 8.5625C376.656 5.4375 380.25 3.75 384.625 3.5ZM426.719 30.7812C426.719 32.5312 426.094 34 424.844 35.1875C423.656 36.4375 422.188 37.0625 420.438 37.0625H392.125C390.375 37.0625 388.875 36.4688 387.625 35.2812C386.438 34.0312 385.844 32.5312 385.844 30.7812C385.844 29.0312 386.438 27.5312 387.625 26.2812C388.875 25.0938 390.375 24.5 392.125 24.5H420.438C422.188 24.5 423.656 25.125 424.844 26.375C426.094 27.5625 426.719 29.0312 426.719 30.7812ZM466.188 0.96875C469.438 0.96875 472.625 1.34375 475.75 2.09375C478.938 2.84375 481.969 3.96875 484.844 5.46875C487.719 6.90625 490.25 8.84375 492.438 11.2812C494.688 13.7188 495.906 16.625 496.094 20V23.9375V53.8438C495.719 57.5938 493.656 59.625 489.906 59.9375C488.156 59.9375 486.625 59.375 485.312 58.25C484.062 57.0625 483.438 55.5938 483.438 53.8438V22.9062C483.312 20.9688 482.562 19.375 481.188 18.125C479.875 16.8125 478.375 15.7812 476.688 15.0312C475.062 14.2812 473.344 13.7188 471.531 13.3438C469.781 12.9688 468 12.7812 466.188 12.7812C464.375 12.7812 462.562 12.9688 460.75 13.3438C459 13.7188 457.281 14.2812 455.594 15.0312C453.969 15.7812 452.469 16.8125 451.094 18.125C449.781 19.375 449.062 20.9688 448.938 22.9062V53.8438C448.625 57.5938 446.594 59.625 442.844 59.9375C441.094 59.9375 439.562 59.375 438.25 58.25C437 57.0625 436.375 55.5938 436.375 53.8438V23.9375V20C436.562 16.625 437.75 13.7188 439.938 11.2812C442.125 8.84375 444.656 6.90625 447.531 5.46875C450.406 3.96875 453.406 2.84375 456.531 2.09375C459.719 1.34375 462.938 0.96875 466.188 0.96875Z" fill="url(#paint0_linear_0_1)" style="mix-blend-mode:color-dodge"/>
<defs>
<linearGradient id="paint0_linear_0_1" x1="291.5" y1="-24" x2="291.5" y2="235" gradientUnits="userSpaceOnUse">
<stop offset="0.17" stop-color="#8EC294"/>
<stop offset="0.965" stop-color="#2F5233"/>
</linearGradient>
</defs>
</svg>
